<svg width="24" height="24" viewBox="0 0 24 24" fill="none" xmlns="http://www.w3.org/2000/svg">
<g clip-path="url(#clip0_380_3645)">
<path d="M4 4.62646C4 3.72965 4.91314 3 6.03576 3C7.15827 3 8.96781 3.36058 8.96781 4.2574V10.1674C8.96781 10.4719 9.12516 10.7187 8.74408 10.7187H7.94972C7.79487 10.8891 7.54702 11 7.26675 11C7.0304 11 6.81672 10.9213 6.66265 10.7946C6.5085 10.9213 6.29482 11 6.05852 11C5.82217 11 5.60848 10.9213 5.45438 10.7946C5.30031 10.9213 5.08663 11 4.85028 11C4.38074 11 4.00004 10.69 4.00004 10.3075C4 10.2821 4 4.62646 4 4.62646Z" fill="#F7941D"/>
<g filter="url(#filter0_d_380_3645)">
<path d="M7.7763 4.69109C7.7763 3.75864 6.97944 3 6 3H18.2237C19.2032 3 20 3.7586 20 4.69109V20.4267C20 20.7434 19.7304 21 19.3979 21H8.37845C8.04597 21 7.7763 20.7434 7.7763 20.4267V10.4522V4.69109Z" fill="#F7941D"/>
</g>
<path d="M11.9526 10.7684H10.1053C9.94829 10.7684 9.82109 10.6412 9.82109 10.4842C9.82109 10.3273 9.94829 10.2 10.1053 10.2H11.9526C12.1096 10.2 12.2368 10.3273 12.2368 10.4842C12.2368 10.6412 12.1096 10.7684 11.9526 10.7684Z" fill="white"/>
<path d="M17.1316 10.7684H15.2842C15.1272 10.7684 15 10.6412 15 10.4842C15 10.3273 15.1272 10.2 15.2842 10.2H17.1316C17.2885 10.2 17.4157 10.3273 17.4157 10.4842C17.4157 10.6412 17.2885 10.7684 17.1316 10.7684Z" fill="white"/>
<path d="M11.9526 12.5684H10.1053C9.94829 12.5684 9.82109 12.4411 9.82109 12.2842C9.82109 12.1273 9.94829 12 10.1053 12H11.9526C12.1096 12 12.2368 12.1273 12.2368 12.2842C12.2368 12.4411 12.1096 12.5684 11.9526 12.5684Z" fill="white"/>
<path d="M17.1316 12.5684H15.2842C15.1272 12.5684 15 12.4411 15 12.2842C15 12.1273 15.1272 12 15.2842 12H17.1316C17.2885 12 17.4157 12.1273 17.4157 12.2842C17.4157 12.4411 17.2885 12.5684 17.1316 12.5684Z" fill="white"/>
<path d="M11.9526 14.0684H10.1053C9.94829 14.0684 9.82109 13.9411 9.82109 13.7842C9.82109 13.6272 9.94829 13.5 10.1053 13.5H11.9526C12.1096 13.5 12.2368 13.6273 12.2368 13.7842C12.2368 13.9412 12.1096 14.0684 11.9526 14.0684Z" fill="white"/>
<path d="M17.1316 14.0684H15.2842C15.1272 14.0684 15 13.9411 15 13.7842C15 13.6272 15.1272 13.5 15.2842 13.5H17.1316C17.2885 13.5 17.4157 13.6273 17.4157 13.7842C17.4157 13.9412 17.2885 14.0684 17.1316 14.0684Z" fill="white"/>
<path d="M11.9526 15.5684H10.1053C9.94829 15.5684 9.82109 15.4411 9.82109 15.2842C9.82109 15.1272 9.94829 15 10.1053 15H11.9526C12.1096 15 12.2368 15.1273 12.2368 15.2842C12.2368 15.4412 12.1096 15.5684 11.9526 15.5684Z" fill="white"/>
<path d="M11.9526 17.0684H10.1053C9.94829 17.0684 9.82109 16.9411 9.82109 16.7842C9.82109 16.6272 9.94829 16.5 10.1053 16.5H11.9526C12.1096 16.5 12.2368 16.6273 12.2368 16.7842C12.2368 16.9412 12.1096 17.0684 11.9526 17.0684Z" fill="white"/>
<path d="M17.4948 8.8737H10.1053C9.94829 8.8737 9.82109 8.74644 9.82109 8.5895C9.82109 8.43256 9.94829 8.3053 10.1053 8.3053H17.4948C17.6517 8.3053 17.7789 8.43256 17.7789 8.5895C17.7789 8.74644 17.6518 8.8737 17.4948 8.8737Z" fill="white"/>
<path d="M17.4948 7.31841H10.1053C9.94829 7.31841 9.82109 7.19114 9.82109 7.0342C9.82109 6.87727 9.94829 6.75 10.1053 6.75H17.4948C17.6517 6.75 17.7789 6.87727 17.7789 7.0342C17.7789 7.19114 17.6518 7.31841 17.4948 7.31841Z" fill="white"/>
<path d="M17.4948 5.76311H10.1053C9.94829 5.76311 9.82109 5.63584 9.82109 5.47891C9.82109 5.32197 9.94829 5.1947 10.1053 5.1947H17.4948C17.6517 5.1947 17.7789 5.32197 17.7789 5.47891C17.7789 5.63584 17.6518 5.76311 17.4948 5.76311Z" fill="white"/>
<path d="M11.9526 18.5684H10.1053C9.94829 18.5684 9.82109 18.4411 9.82109 18.2842C9.82109 18.1272 9.94829 18 10.1053 18H11.9526C12.1096 18 12.2368 18.1273 12.2368 18.2842C12.2368 18.4412 12.1096 18.5684 11.9526 18.5684Z" fill="white"/>
<path d="M17 20C15.8954 20 15 19.1046 15 18C15 16.8954 15.8954 16 17 16C18.1046 16 19 16.8954 19 18C19 19.1046 18.1046 20 17 20ZM17.9171 17.4168C17.9546 17.3792 17.9546 17.3182 17.9171 17.2806L17.7128 17.0765C17.6752 17.0389 17.6142 17.0389 17.5766 17.0765L16.998 17.6551L16.4194 17.0765C16.3818 17.0389 16.3208 17.0389 16.2832 17.0765L16.0789 17.2806C16.0414 17.3182 16.0414 17.3792 16.0789 17.4168L16.6577 17.9955L16.0789 18.574C16.0414 18.6115 16.0414 18.6726 16.0789 18.7102L16.2832 18.9145C16.3208 18.952 16.3818 18.952 16.4194 18.9145L16.998 18.3357L17.5766 18.9145C17.6142 18.952 17.6752 18.952 17.7128 18.9145L17.9171 18.7102C17.9546 18.6726 17.9546 18.6115 17.9171 18.574L17.3383 17.9955L17.9171 17.4168Z" fill="white"/>
</g>
<defs>
<filter id="filter0_d_380_3645" x="-0.9" y="-1.9" width="21.8" height="25.8" filterUnits="userSpaceOnUse" color-interpolation-filters="sRGB">
<feFlood flood-opacity="0" result="BackgroundImageFix"/>
<feColorMatrix in="SourceAlpha" type="matrix" values="0 0 0 0 0 0 0 0 0 0 0 0 0 0 0 0 0 0 127 0" result="hardAlpha"/>
<feOffset dx="-3" dy="-1"/>
<feGaussianBlur stdDeviation="1.95"/>
<feComposite in2="hardAlpha" operator="out"/>
<feColorMatrix type="matrix" values="0 0 0 0 0 0 0 0 0 0 0 0 0 0 0 0 0 0 0.13 0"/>
<feBlend mode="normal" in2="BackgroundImageFix" result="effect1_dropShadow_380_3645"/>
<feBlend mode="normal" in="SourceGraphic" in2="effect1_dropShadow_380_3645" result="shape"/>
</filter>
<clipPath id="clip0_380_3645">
<rect width="24" height="24" fill="white"/>
</clipPath>
</defs>
</svg>
