<svg width="24" height="24" viewBox="0 0 24 24" fill="none" xmlns="http://www.w3.org/2000/svg">
<path d="M14.3188 11.0541H16.0906V12.5203H14.3188V11.0541ZM14.3188 14.4705H16.0906V13.0043H14.3188V14.4705ZM14.3188 16.416H16.0906V14.9498H14.3188V16.416ZM16.6165 14.4705H18.3835V13.0043H16.6117V14.4705H16.6165ZM16.6165 16.416H18.3835V14.9498H16.6117V16.416H16.6165ZM18.9141 14.9498V16.416H20.6859V14.9498H18.9141ZM23.5 9.23081L17.4976 6.43005L11.5 9.2402L11.8743 10.0156L12.637 9.65374V16.4207H13.4992V9.62554H21.5055V16.4301H22.3677V9.66314L23.1305 10.0156L23.5 9.23081Z" fill="#F7941D"/>
<path d="M9.81182 15.656C9.62192 15.656 9.43629 15.7124 9.27845 15.818C9.12061 15.9235 8.99766 16.0736 8.92517 16.2491C8.85269 16.4246 8.83393 16.6177 8.87127 16.8039C8.90861 16.9901 9.00037 17.161 9.13493 17.295C9.26949 17.429 9.44079 17.5201 9.62714 17.5566C9.81349 17.5932 10.0065 17.5736 10.1817 17.5004C10.3569 17.4272 10.5065 17.3036 10.6114 17.1453C10.7163 16.987 10.7719 16.8012 10.7711 16.6113C10.7695 16.3577 10.6678 16.1151 10.4881 15.9361C10.3085 15.7572 10.0654 15.6565 9.81182 15.656ZM9.81182 16.8983C9.75594 16.8987 9.7012 16.8825 9.65449 16.8518C9.60778 16.8211 9.57121 16.7773 9.54937 16.7259C9.52753 16.6744 9.52141 16.6177 9.53178 16.5628C9.54215 16.5079 9.56855 16.4573 9.60764 16.4173C9.64673 16.3774 9.69677 16.3499 9.75144 16.3384C9.80612 16.3269 9.86299 16.3318 9.91487 16.3525C9.96676 16.3733 10.0113 16.4089 10.043 16.455C10.0747 16.501 10.092 16.5554 10.0928 16.6113C10.0933 16.6486 10.0864 16.6857 10.0726 16.7203C10.0587 16.755 10.0382 16.7866 10.012 16.8133C9.98592 16.8399 9.95478 16.8612 9.92042 16.8758C9.88606 16.8904 9.84915 16.898 9.81182 16.8983Z" fill="#F7941D"/>
<path d="M9.71912 11.6704H8.06345C8.0033 11.6704 7.94562 11.6943 7.90309 11.7368C7.86056 11.7793 7.83667 11.837 7.83667 11.8971V16.2962C7.83667 16.3259 7.84255 16.3553 7.85397 16.3827C7.86539 16.4101 7.88213 16.435 7.90321 16.4559C7.9243 16.4768 7.94931 16.4933 7.97681 16.5044C8.00432 16.5156 8.03376 16.5212 8.06345 16.521H8.30226C8.35641 16.5216 8.40896 16.5027 8.45026 16.4676C8.49156 16.4326 8.51882 16.3838 8.52703 16.3303C8.57553 16.0245 8.73152 15.7461 8.96696 15.5451C9.2024 15.344 9.50184 15.2336 9.81143 15.2336C10.121 15.2336 10.4205 15.344 10.6559 15.5451C10.8913 15.7461 11.0473 16.0245 11.0958 16.3303C11.1036 16.384 11.1308 16.433 11.1722 16.4681C11.2136 16.5032 11.2663 16.522 11.3206 16.521H11.5634C11.6232 16.521 11.6806 16.4974 11.7231 16.4553C11.7656 16.4132 11.7897 16.356 11.7902 16.2962V14.0886C11.7899 14.0356 11.7707 13.9843 11.736 13.9441L9.89572 11.7366C9.87292 11.7133 9.84529 11.6953 9.81477 11.6839C9.78426 11.6724 9.75161 11.6678 9.71912 11.6704ZM8.28822 13.4765V12.3487C8.28821 12.2889 8.31183 12.2315 8.35393 12.189C8.39602 12.1466 8.45319 12.1224 8.51299 12.1219H9.51642C9.54949 12.122 9.58214 12.1294 9.61199 12.1436C9.64185 12.1578 9.66816 12.1785 9.68901 12.2042L10.6282 13.3321C10.6558 13.3649 10.6733 13.4048 10.6789 13.4473C10.6845 13.4898 10.6778 13.5329 10.6597 13.5717C10.6416 13.6105 10.6127 13.6433 10.5766 13.6663C10.5404 13.6892 10.4985 13.7014 10.4556 13.7013H8.51299C8.45337 13.7013 8.3962 13.6776 8.35405 13.6355C8.3119 13.5933 8.28822 13.5362 8.28822 13.4765Z" fill="#F7941D"/>
<path d="M0.726777 16.5209H1.30877C1.36223 16.5206 1.41381 16.5012 1.45427 16.4663C1.49473 16.4313 1.52141 16.3831 1.52953 16.3303C1.56569 16.0189 1.71808 15.7326 1.95621 15.5287C2.19434 15.3248 2.50066 15.2183 2.81392 15.2305C3.12718 15.2183 3.43351 15.3248 3.67164 15.5287C3.90977 15.7326 4.06215 16.0189 4.09832 16.3303C4.10613 16.384 4.13328 16.433 4.17467 16.4681C4.21606 16.5032 4.26883 16.522 4.32309 16.5209H7.16081C7.22042 16.5209 7.27759 16.4972 7.31975 16.4551C7.3619 16.4129 7.38558 16.3558 7.38558 16.2961V10.6548C7.38558 10.5952 7.3619 10.538 7.31975 10.4959C7.27759 10.4537 7.22042 10.4301 7.16081 10.4301H0.726777C0.666978 10.4301 0.609598 10.4537 0.567127 10.4958C0.524655 10.5379 0.500529 10.595 0.5 10.6548V16.2961C0.500529 16.3559 0.524655 16.4131 0.567127 16.4552C0.609598 16.4973 0.666978 16.5209 0.726777 16.5209Z" fill="#F7941D"/>
<path d="M2.81865 15.656C2.62875 15.656 2.44313 15.7124 2.28529 15.818C2.12745 15.9235 2.0045 16.0736 1.93201 16.2491C1.85952 16.4246 1.84076 16.6177 1.8781 16.8039C1.91544 16.9901 2.00721 17.161 2.14177 17.295C2.27633 17.429 2.44763 17.5201 2.63398 17.5566C2.82032 17.5932 3.01333 17.5736 3.18854 17.5004C3.36376 17.4272 3.5133 17.3036 3.61822 17.1453C3.72315 16.987 3.77873 16.8012 3.77794 16.6113C3.77635 16.3577 3.67465 16.1151 3.49497 15.9361C3.3153 15.7572 3.07221 15.6565 2.81865 15.656ZM2.81865 16.8983C2.76277 16.8987 2.70803 16.8825 2.66133 16.8518C2.61462 16.8211 2.57804 16.7773 2.55621 16.7259C2.53437 16.6744 2.52825 16.6177 2.53862 16.5628C2.54899 16.5079 2.57538 16.4573 2.61447 16.4173C2.65357 16.3774 2.7036 16.3499 2.75828 16.3384C2.81296 16.3269 2.86982 16.3318 2.92171 16.3525C2.9736 16.3733 3.01818 16.4089 3.04984 16.455C3.0815 16.501 3.09882 16.5554 3.09961 16.6113C3.10014 16.6486 3.09328 16.6857 3.07943 16.7203C3.06557 16.755 3.04499 16.7866 3.01887 16.8133C2.99276 16.8399 2.96162 16.8612 2.92726 16.8758C2.89289 16.8904 2.85598 16.898 2.81865 16.8983Z" fill="#F7941D"/>
</svg>
