<svg width="24" height="24" viewBox="0 0 24 24" fill="none" xmlns="http://www.w3.org/2000/svg">
<path d="M6.97995 15.62L6.19995 14.84V20H11.36L8.77995 17.42L6.97995 15.62Z" fill="#F7941D"/>
<path d="M13.04 20H15.8C16.16 20 16.4 19.76 16.4 19.4V10.64L10.04 17L13.04 20Z" fill="#F7941D"/>
<path d="M2 19.4C2 19.76 2.24 20 2.6 20H5V13.64L2 10.64V19.4Z" fill="#F7941D"/>
<path d="M8.84 12.68C8.96 12.74 9.08 12.8 9.2 12.8C9.32 12.8 9.44 12.74 9.56 12.68C9.74 12.56 13.4 9.68 13.4 6.2C13.4 3.86 11.54 2 9.2 2C6.86 2 5 3.86 5 6.2C5 9.68 8.66 12.56 8.84 12.68ZM9.2 4.4C10.22 4.4 11 5.18 11 6.2C11 7.22 10.22 8 9.2 8C8.18 8 7.4 7.22 7.4 6.2C7.4 5.18 8.18 4.4 9.2 4.4Z" fill="#F7941D"/>
<path d="M15.8 5.59998H14.54C14.6 5.77998 14.6 6.01998 14.6 6.19998C14.6 10.16 10.76 13.28 10.28 13.64C9.98 13.88 9.62 14 9.2 14C8.78 14 8.42 13.88 8.12 13.64C7.64 13.28 3.8 10.16 3.8 6.19998C3.8 6.01998 3.8 5.77998 3.86 5.59998H2.6C2.24 5.59998 2 5.83998 2 6.19998V8.95998L6.02 12.98L7.82 14.78L9.2 16.16L16.4 8.95998V6.19998C16.4 5.83998 16.16 5.59998 15.8 5.59998Z" fill="#F7941D"/>
<path d="M13.6484 16.8105C13.2512 14.35 15.35 12.2512 17.8105 12.6484C19.3435 12.8961 20.5623 14.1456 20.7842 15.6797C20.9058 16.5215 20.7318 17.3166 20.3555 17.9814C20.5103 17.9663 20.669 18.0007 20.8037 18.0898L20.9121 18.1787L23.041 20.3076C23.5197 20.7864 23.5198 21.5623 23.041 22.041C22.5623 22.5198 21.7864 22.5197 21.3076 22.041L19.1787 19.9121C19.0265 19.7599 18.9622 19.5543 18.9814 19.3555C18.3165 19.7318 17.5214 19.9058 16.6797 19.7842C15.1456 19.5623 13.8961 18.3435 13.6484 16.8105Z" fill="#F7941D" stroke="white" stroke-width="0.8"/>
</svg>
