<svg width="24" height="24" viewBox="0 0 24 24" fill="none" xmlns="http://www.w3.org/2000/svg">
<path d="M20.3179 16.2414C19.3522 14.931 18.8157 13.3448 18.8157 11.7243V8.27616C18.8157 5.58653 16.777 3.3798 14.2377 3.3798H14.1304C13.9873 2.58674 13.2719 2.00051 12.4493 2.00051H11.9486C11.126 2.00051 10.4105 2.58674 10.2675 3.3798H9.80253C7.26332 3.3798 5.22453 5.58658 5.22453 8.27616V11.7243C5.22453 13.3451 4.72384 14.9312 3.72237 16.2414C3.11431 16.4482 2.72085 17 2.72085 17.6206V17.7585C2.72085 18.5862 3.40042 19.2414 4.25891 19.2414H9.15904C9.15904 20.7586 10.4467 22 12.0204 22C13.5941 22 14.8817 20.7586 14.8817 19.2414H19.7818C20.6403 19.2414 21.3199 18.5862 21.3199 17.7585V17.6206C21.3197 17 20.9262 16.4482 20.3182 16.2414H20.3179ZM11.9488 2.68985H12.4495C12.8787 2.68985 13.2721 2.96568 13.4152 3.3794H10.983C11.1262 2.96567 11.5196 2.68985 11.9489 2.68985H11.9488ZM12.0204 21.3103C10.8401 21.3103 9.87447 20.3793 9.87447 19.2415H14.1665C14.1663 20.3793 13.2006 21.3103 12.0204 21.3103ZM17.3135 2.37928C17.385 2.20681 17.5996 2.10345 17.7785 2.2068C19.5667 2.93092 20.7828 4.79292 20.7828 6.86181C20.7828 7.06868 20.6398 7.20659 20.4252 7.20659C20.2106 7.20659 20.0676 7.06868 20.0676 6.86181C20.0676 5.06875 19.0304 3.48258 17.4924 2.86184C17.3493 2.75849 17.2419 2.55163 17.3135 2.37913L17.3135 2.37928ZM21.7485 5.44824C21.5696 5.48281 21.355 5.37929 21.3194 5.20681C21.0689 4.20687 20.5324 3.31025 19.7813 2.6207C19.6383 2.48279 19.6383 2.27591 19.7455 2.13798C19.8528 2.00007 20.1031 2.00007 20.2461 2.10342C21.1046 2.89648 21.6768 3.93103 21.9629 5.03449C22.0704 5.20679 21.9274 5.37929 21.7485 5.44824ZM3.22161 6.82753C3.22161 4.75869 4.43771 2.89651 6.22598 2.17253C6.40488 2.10357 6.61945 2.17253 6.69096 2.34501C6.76246 2.51748 6.69096 2.72435 6.51206 2.79329C4.974 3.44846 3.93682 5.03463 3.93682 6.82768C3.93682 7.03456 3.79377 7.17247 3.5792 7.17247C3.36462 7.17247 3.22158 7.03456 3.22158 6.82768L3.22161 6.82753ZM2.72078 5.17241C2.68493 5.34489 2.47036 5.4828 2.29164 5.44824C2.11274 5.41368 1.96969 5.20681 2.00554 5.0345C2.29164 3.93105 2.8997 2.89667 3.72229 2.10343C3.86534 1.96552 4.07991 1.96552 4.22298 2.10343C4.36603 2.24134 4.36603 2.44821 4.22298 2.58615C3.50775 3.31044 2.97117 4.20685 2.72078 5.17241Z" fill="#F7941D"/>
</svg>
