<svg width="24" height="24" viewBox="0 0 24 24" fill="none" xmlns="http://www.w3.org/2000/svg">
<g clip-path="url(#clip0_428_45)">
<path d="M4.23378 6.48985C4.33449 6.48985 4.43154 6.52976 4.50313 6.60172L11.0628 13.1619L12.2118 12.0125L5.6526 5.45188C5.57661 5.37626 5.53669 5.27189 5.54109 5.16477L5.60426 3.79808L2.69417 2.34351L1.39465 3.64354L2.84923 6.55382L4.21592 6.49065C4.22178 6.48991 4.22782 6.48991 4.23368 6.48991L4.23378 6.48985Z" fill="#F7941D"/>
<mask id="mask0_428_45" style="mask-type:luminance" maskUnits="userSpaceOnUse" x="10" y="0" width="14" height="12">
<path d="M10.875 0.191711H23.4844V11.9531H10.875V0.191711Z" fill="white"/>
</mask>
<g mask="url(#mask0_428_45)">
<path d="M12.7594 11.4787C13.2553 11.0592 14.0523 11.0858 14.5136 11.5474L14.8796 11.9138L16.3556 10.4341C16.8518 10.7773 17.4427 10.9644 18.0566 10.9644C18.8497 10.9644 19.5934 10.6591 20.1503 10.1027L22.5797 7.67322C23.1365 7.11639 23.4454 6.37282 23.4454 5.5796C23.4454 4.78619 23.1365 4.0428 22.5684 3.47444C22.42 3.32576 22.1794 3.32576 22.0267 3.47444L20.0972 5.404C19.6017 5.89985 18.7281 5.89985 18.2286 5.404C17.7175 4.88932 17.7175 4.05049 18.2286 3.53543L20.1622 1.60549C20.3109 1.45681 20.2995 1.20503 20.1508 1.05635C19.594 0.499519 18.8504 0.190613 18.0572 0.190613C17.2638 0.190613 16.5204 0.499509 15.9593 1.05635L13.5339 3.48175C12.504 4.51174 12.3861 6.11318 13.2022 7.27661L10.8796 9.59913L12.7587 11.4804C12.7587 11.4794 12.759 11.4787 12.7594 11.4787Z" fill="#F7941D"/>
</g>
<path d="M13.9721 12.0848C13.8728 11.9856 13.7395 11.9325 13.5949 11.9325C13.4535 11.9325 13.3162 11.986 13.2173 12.0848L13.0494 12.2564C13.0384 12.2641 13.0302 12.2756 13.0228 12.283L12.1011 13.2025L11.3331 13.9705C11.3317 13.9719 11.3291 13.9727 11.3273 13.9741L11.135 14.1668C11.0358 14.2697 10.9786 14.4033 10.9786 14.5443C10.9786 14.6893 11.0358 14.823 11.135 14.9259L19.1286 22.9158C19.3308 23.1179 19.6854 23.1179 19.8879 22.9158L21.9662 20.8335C22.0691 20.7342 22.1225 20.6009 22.1225 20.4559C22.1225 20.3149 22.0691 20.1778 21.9662 20.0783L13.9721 12.0848ZM19.6392 20.5894C19.5629 20.6617 19.4677 20.6998 19.3688 20.6998C19.2732 20.6998 19.1743 20.6617 19.1016 20.5894L13.4649 14.9527C13.3166 14.804 13.3166 14.5601 13.4649 14.411C13.6136 14.2623 13.8542 14.2623 14.0025 14.411L19.6393 20.0477C19.7879 20.1966 19.7879 20.4405 19.6393 20.5892L19.6392 20.5894Z" fill="#F7941D"/>
<path d="M10.2155 14.5449C10.2155 14.233 10.3259 13.9364 10.5269 13.7042L8.6479 11.8256L1.40571 19.072C0.982556 19.4915 0.75293 20.0519 0.75293 20.6509C0.75293 21.2498 0.981994 21.8103 1.40571 22.2298C1.8252 22.6493 2.3853 22.8819 2.98427 22.8819C3.57916 22.8819 4.14002 22.6493 4.56284 22.2298L10.9631 15.83L10.5971 15.464C10.3532 15.2201 10.2155 14.892 10.2155 14.5448L10.2155 14.5449Z" fill="#F7941D"/>
</g>
<defs>
<clipPath id="clip0_428_45">
<rect width="24" height="24" fill="white"/>
</clipPath>
</defs>
</svg>
