<svg width="24" height="24" viewBox="0 0 24 24" fill="none" xmlns="http://www.w3.org/2000/svg">
<g clip-path="url(#clip0_450_429)">
<path d="M4 5.59998H12" stroke="#F7941D" stroke-width="1.5" stroke-linecap="round"/>
<path d="M19.6191 11.9999L11.9391 11.9999" stroke="#F7941D" stroke-width="1.5" stroke-linecap="round"/>
<path d="M7.36768 11.9999H4.32005" stroke="#F7941D" stroke-width="1.5" stroke-linecap="round"/>
<path d="M20 18.4H16.8" stroke="#F7941D" stroke-width="1.5" stroke-linecap="round"/>
<path d="M19.6191 5.59998H17.0591" stroke="#F7941D" stroke-width="1.5" stroke-linecap="round"/>
<path d="M4 18.4H12.8" stroke="#F7941D" stroke-width="1.5" stroke-linecap="round"/>
<path d="M14.4406 7.5555C15.4225 7.5555 16.2184 6.75956 16.2184 5.77772C16.2184 4.79588 15.4225 3.99994 14.4406 3.99994C13.4588 3.99994 12.6628 4.79588 12.6628 5.77772C12.6628 6.75956 13.4588 7.5555 14.4406 7.5555Z" stroke="#F7941D" stroke-width="1.5" stroke-linecap="round"/>
<path d="M14.6947 19.9997C15.6765 19.9997 16.4724 19.2037 16.4724 18.2219C16.4724 17.24 15.6765 16.4441 14.6947 16.4441C13.7128 16.4441 12.9169 17.24 12.9169 18.2219C12.9169 19.2037 13.7128 19.9997 14.6947 19.9997Z" stroke="#F7941D" stroke-width="1.5" stroke-linecap="round"/>
<path d="M9.9073 13.778C10.8891 13.778 11.6851 12.982 11.6851 12.0002C11.6851 11.0184 10.8891 10.2224 9.9073 10.2224C8.92546 10.2224 8.12952 11.0184 8.12952 12.0002C8.12952 12.982 8.92546 13.778 9.9073 13.778Z" stroke="#F7941D" stroke-width="1.5" stroke-linecap="round"/>
</g>
<defs>
<clipPath id="clip0_450_429">
<rect width="24" height="24" fill="white"/>
</clipPath>
</defs>
</svg>
